# AST/ASF file generated using VICON BodyLanguage
# -----------------------------------------------
:version 1.10
:name VICON
:units
  mass 1.0
  length 0.45
  angle deg
:documentation
   .ast/.asf automatically generated from VICON data using
   VICON BodyBuilder and BodyLanguage model FoxedUp or BRILLIANT.MOD
:root
   order TX TY TZ RX RY RZ
   axis XYZ
   position 0 0 0  
   orientation 0 0 0 
:bonedata
  begin
     id 1 
     name lhipjoint
     direction 0.64773 -0.699417 0.302095 
     length 2.48597 
     axis 0 0 0  XYZ
  end
  begin
     id 2 
     name lfemur
     direction 0.34202 -0.939693 0  
     length 6.71947  
     axis 0 0 20  XYZ
    dof rx ry rz
    limits (-160.0 20.0)
           (-70.0 70.0)
           (-60.0 70.0)
  end
  begin
     id 3 
     name ltibia
     direction 0.34202 -0.939693 0   
     length 8.08777   
     axis 0 0 20   XYZ
    dof rx
    limits (-10.0 170.0)
  end
  begin
     id 4 
     name lfoot
     direction 0.0808503 -0.222134 0.971658   
     length 2.08264   
     axis -90 7.62852e-016 20   XYZ
    dof rx rz
    limits (-45.0 90.0)
           (-70.0 20.0)
  end
  begin
     id 5 
     name ltoes
     direction 1.53502e-011 -4.22007e-011 1   
     length 1.04662   
     axis -90 7.62852e-016 20   XYZ
    dof rx
    limits (-90.0 20.0)
  end
  begin
     id 6 
     name rhipjoint
     direction -0.610924 -0.726792 0.313919   
     length 2.39233  
     axis 0 0 0  XYZ 
  end
  begin
     id 7 
     name rfemur
     direction -0.34202 -0.939693 0   
     length 6.96955   
     axis 0 0 -20   XYZ
    dof rx ry rz
    limits (-160.0 20.0)
           (-70.0 70.0)
           (-70.0 60.0)
  end
  begin
     id 8 
     name rtibia
     direction -0.34202 -0.939693 0   
     length 8.19584   
     axis 0 0 -20   XYZ
    dof rx
    limits (-10.0 170.0)
 end
 begin
     id 9 
     name rfoot
     direction -0.077777 -0.213691 0.9738   
     length 2.07539  
     axis -90 -7.62852e-016 -20   XYZ
    dof rx rz
    limits (-45.0 90.0)
           (-20.0 70.0)
  end
  begin
     id 10 
     name rtoes
     direction -1.53558e-011 -4.22006e-011 1   
     length 1.04381   
     axis -90 -7.62852e-016 -20   XYZ
    dof rx
    limits (-90.0 20.0)
  end
  begin
     id 11 
     name lowerback
     direction -0.00971646 0.996074 0.0879841   
     length 1.67643   
     axis 0 0 0   XYZ
    dof rx ry rz
    limits (-20.0 45.0)
           (-30.0 30.0)
           (-30.0 30.0)
  end
  begin
     id 12 
     name upperback
     direction 0.0127391 0.991676 0.128127   
     length 1.63741   
     axis 0 0 0   XYZ
    dof rx ry rz
    limits (-20.0 45.0)
           (-30.0 30.0)
           (-30.0 30.0)
  end
  begin
     id 13 
     name thorax
     direction 0.0167583 0.996049 0.0872067   
     length 1.65931   
     axis 0 0 0   XYZ
    dof rx ry rz
    limits (-20.0 45.0)
           (-30.0 30.0)
           (-30.0 30.0)
  end
  begin
     id 14 
     name lowerneck
     direction -0.0317829 0.998312 0.0486079   
     length 1.79021   
     axis 0 0 0   XYZ
    dof rx ry rz
    limits (-20.0 45.0)
           (-30.0 30.0)
           (-30.0 30.0)
  end
  begin
     id 15 
     name upperneck
     direction 0.0896851 0.972452 -0.215159   
     length 1.78797   
     axis 0 0 0   XYZ
    dof rx ry rz
    limits (-20.0 45.0)
           (-30.0 30.0)
           (-30.0 30.0)
  end
  begin
     id 16
     name head
     direction 0.0310949 0.996503 -0.0775582  
     length 1.81549  
     axis 0 0 0   XYZ
    dof rx ry rz
    limits (-20.0 45.0)
           (-30.0 30.0)
           (-30.0 30.0)
  end
  begin
     id 17 
     name lclavicle
     direction 0.853638 0.502051 -0.138733  
     length 3.31627  
     axis 0 0 0   XYZ
    dof ry rz
    limits (-20.0 10.0)
           (0.0 20.0)
  end
  begin
     id 18 
     name lhumerus
     direction 1 -4.48962e-011 -1.41788e-018   
     length 5.54893   
     axis 180 -30 -90   XYZ
    dof rx ry rz
    limits (-60.0 90.0)
           (-90.0 90.0)
           (-90.0 90.0)
  end
  begin
     id 19
     name lradius
     direction 1 -4.48962e-011 -4.95754e-027   
     length 3.02898   
     axis 180 -30 -90   XYZ
    dof rx
    limits (-10.0 170.0)
  end
  begin
     id 20
     name lwrist
     direction 1 -4.48952e-011 -1.03764e-026   
     length 1.51449   
     axis 9.09556e-015 90 90   XYZ
    dof ry
    limits (-180.0 0.0)
 end
  begin
     id 21 
     name lhand
     direction 1 -4.4902e-011 -2.07528e-026   
     length 0.640951   
     axis 1.3242e-014 90 90   XYZ
    dof rx rz
    limits (-90.0 90.0)
           (-45.0 45.0)
  end
  begin
     id 22 
     name lfingers
     direction 1 -4.49014e-011 -4.15056e-026   
     length 0.516751   
     axis 2.64841e-014 90 90   XYZ
    dof rx
    limits (0.0 90.0)
  end
  begin
     id 23
     name lthumb
     direction 0.707107 -6.35008e-011 0.707107   
     length 0.741954   
     axis -90 45 2.85299e-015   XYZ
    dof rx rz
    limits (-45.0 45.0)
           (-45.0 45.0)
  end
  begin
     id 24 
     name rclavicle
     direction -0.888531 0.455324 -0.0565039   
     length 3.20126  
     axis 0 0 0   XYZ 
    dof ry rz
    limits (-10.0 20.0)
           (-20.0 0.0)
  end
  begin
     id 25 
     name rhumerus
     direction -1 -4.48946e-011 -8.98298e-028  
     length 5.3519   
     axis 180 30 90   XYZ
    dof rx ry rz
    limits (-90.0 60.0)
           (-90.0 90.0)
           (-90.0 90.0)
  end
  begin
     id 26 
     name rradius
     direction -1 -4.4899e-011 -3.18779e-027   
     length 3.02531   
     axis 180 30 90   XYZ
    dof rx
    limits (-10.0 170.0)
  end
  begin
     id 27 
     name rwrist
     direction -1 -4.4897e-011 -1.03764e-026   
     length 1.51266   
     axis 9.09556e-015 -90 -90   XYZ
    dof ry
    limits (-180.0 0.0)
  end
  begin
     id 28
     name rhand
     direction -1 -4.48941e-011 -2.07528e-026   
     length 0.78389   
     axis 1.3242e-014 -90 -90   XYZ
    dof rx rz
    limits (-90.0 90.0)
           (-45.0 45.0)
  end
  begin
     id 29
     name rfingers
     direction -1 -4.49012e-011 -4.15056e-026   
     length 0.631992   
     axis 2.64841e-014 -90 -90   XYZ
    dof rx
    limits (0.0 90.0)
  end
  begin
     id 30
     name rthumb
     direction -0.707107 -6.3496e-011 0.707107   
     length 0.907418   
     axis -90 -45 -2.85299e-015   XYZ
    dof rx rz
    limits (-45.0 45.0)
           (-45.0 45.0)
  end
:hierarchy
  begin
    root lhipjoint rhipjoint lowerback
    lhipjoint lfemur
    lfemur ltibia
    ltibia lfoot
    lfoot ltoes
    rhipjoint rfemur
    rfemur rtibia
    rtibia rfoot
    rfoot rtoes
    lowerback upperback
    upperback thorax
    thorax lowerneck lclavicle rclavicle
    lowerneck upperneck
    upperneck head
    lclavicle lhumerus
    lhumerus lradius
    lradius lwrist
    lwrist lhand lthumb
    lhand lfingers
    rclavicle rhumerus
    rhumerus rradius
    rradius rwrist
    rwrist rhand rthumb
    rhand rfingers
  end

#!OML:ASF E:\Style3\Style3.ASF
:FULLY-SPECIFIED
:DEGREES
584
root -1.79605 16.1051 0.531706 -106.798 66.9336 -175.919
lowerback 213.204 173.153 171.302
upperback 10.4949 6.9577 1.70709
thorax -6.27111 3.4836 3.86917
lowerneck -5.32347 -0.625957 -4.38705
upperneck -17.9656 1.67761 11.8574
head -4.56025 0.964273 4.38569
rclavicle 1.43125e-014 2.62396e-014
rhumerus -57.9799 14.3991 -76.6456
rradius 86.9637
rwrist -16.9897
rhand 9.66498 6.93667
rfingers 7.12502
rthumb 34.8085 -19.6639
lclavicle 1.43125e-014 2.62396e-014
lhumerus -51.3009 -22.5078 81.6182
lradius 102.996
lwrist 29.6236
lhand -12.6238 40.5209
lfingers 7.12502
lthumb 13.4558 70.0662
rfemur -100.53 -5.07248 29.9795
rtibia 48.8319
rfoot -15.0301 -16.5893
rtoes -16.8132
lfemur -103.938 2.58247 -14.1397
ltibia 41.336
lfoot -6.61876 -5.21061
ltoes -23.8568
585
root -1.79061 16.113 0.509421 -107.153 67.3782 -176.211
lowerback 213.335 173.176 171.32
upperback 10.4883 6.92766 1.78855
thorax -6.33266 3.46911 3.94565
lowerneck -5.38557 -0.710266 -4.99543
upperneck -18.2484 1.70579 12.4761
head -4.6357 0.995679 4.69465
rclavicle -1.27222e-013 2.18663e-014
rhumerus -58.0699 14.5995 -76.5259
rradius 86.8127
rwrist -17.0769
rhand 9.6249 6.85719
rfingers 7.12502
rthumb 34.7705 -19.7522
lclavicle -1.27222e-013 2.18663e-014
lhumerus -51.299 -22.357 81.677
lradius 103.123
lwrist 30.151
lhand -12.0264 41.2086
lfingers 7.12502
lthumb 14.0315 70.715
rfemur -100.432 -5.19225 29.4975
rtibia 48.8064
rfoot -14.9839 -16.6102
rtoes -16.9918
lfemur -103.726 2.40563 -14.3659
ltibia 41.3519
lfoot -6.73392 -4.94675
ltoes -23.7641
586
root -1.78781 16.117 0.486202 -107.721 67.7664 -176.694
lowerback 213.517 173.241 171.446
upperback 10.4798 6.88194 1.92597
thorax -6.41384 3.44858 4.02803
lowerneck -5.08364 -0.767897 -5.71518
upperneck -18.9111 1.81041 13.1024
head -4.89639 1.05686 5.03317
rclavicle 7.31528e-014 4.21423e-014
rhumerus -58.1959 14.726 -76.3057
rradius 86.6753
rwrist -17.1238
rhand 9.77747 6.75787
rfingers 7.12502
rthumb 34.9152 -19.8179
lclavicle 7.31528e-014 4.21423e-014
lhumerus -51.3927 -22.2562 81.8242
lradius 103.283
lwrist 30.6327
lhand -11.5955 41.6393
lfingers 7.12502
lthumb 14.4467 71.1164
rfemur -100.348 -5.4206 29.0881
rtibia 48.8147
rfoot -15.0207 -16.5007
rtoes -16.9108
lfemur -103.537 2.21036 -14.9091
ltibia 41.3646
lfoot -6.82239 -5.03693
ltoes -23.8152
587
root -1.78378 16.123 0.465762 -108.127 68.1515 -177.018
lowerback 213.66 173.412 171.62
upperback 10.4589 6.70761 1.87048
thorax -6.44773 3.37187 3.93575
lowerneck -4.9538 -0.721523 -5.66019
upperneck -19.2889 1.94277 13.1703
head -5.04782 1.11402 5.04951
rclavicle 8.26944e-014 1.18078e-013
rhumerus -58.2124 14.9316 -76.41
rradius 86.4714
rwrist -17.1588
rhand 10.3673 6.71229
rfingers 7.12502
rthumb 35.4747 -19.7316
lclavicle 8.26944e-014 1.18078e-013
lhumerus -51.5213 -22.062 81.6551
lradius 103.399
lwrist 30.8226
lhand -11.3392 42.0264
lfingers 7.12502
lthumb 14.6937 71.4857
rfemur -100.261 -5.57567 28.7379
rtibia 48.8273
rfoot -14.9988 -16.4124
rtoes -16.7666
lfemur -103.368 2.09051 -15.4007
ltibia 41.3875
lfoot -6.92131 -5.07166
ltoes -24.1738
588
root -1.78036 16.1222 0.446997 -108.264 68.5235 -177.198
lowerback 213.621 173.696 171.85
upperback 10.3948 6.40578 1.64497
thorax -6.4234 3.23863 3.69656
lowerneck -5.43992 -0.608465 -4.85973
upperneck -18.8594 1.98414 12.6416
head -4.83967 1.1291 4.72846
rclavicle -2.38542e-014 1.07344e-014
rhumerus -58.0978 15.2424 -76.8504
rradius 86.1159
rwrist -17.216
rhand 10.6681 6.81252
rfingers 7.12502
rthumb 35.7597 -19.5627
lclavicle -2.38542e-014 1.07344e-014
lhumerus -51.6755 -21.7535 81.2065
lradius 103.447
lwrist 30.9765
lhand -11.0859 42.4218
lfingers 7.12502
lthumb 14.9378 71.8632
rfemur -100.309 -5.64581 28.3977
rtibia 48.8509
rfoot -15.0495 -16.3364
rtoes -16.5195
lfemur -103.343 2.02356 -15.7721
ltibia 41.4211
lfoot -6.99113 -5.05438
ltoes -24.0895
589
root -1.77964 16.1187 0.428091 -108.594 68.8725 -177.6
lowerback 213.543 173.967 172.087
upperback 10.3585 6.14024 1.54721
thorax -6.37901 3.1197 3.57695
lowerneck -6.50859 -0.556605 -4.04224
upperneck -17.8133 1.81012 11.8055
head -4.3295 1.07027 4.30811
rclavicle -9.70069e-014 -6.71892e-014
rhumerus -57.9238 15.4931 -77.0529
rradius 85.7275
rwrist -17.2455
rhand 10.7635 6.90536
rfingers 7.12502
rthumb 35.8502 -19.4478
lclavicle -9.70069e-014 -6.71892e-014
lhumerus -51.863 -21.5102 81.0322
lradius 103.486
lwrist 31.1541
lhand -11.0692 42.4051
lfingers 7.12502
lthumb 14.9538 71.8452
rfemur -100.403 -5.79148 28.0413
rtibia 48.8637
rfoot -15.0534 -16.2783
rtoes -16.5943
lfemur -103.367 1.88704 -16.2274
ltibia 41.4583
lfoot -7.06668 -5.06264
ltoes -24.034
590
root -1.77782 16.1205 0.40967 -108.866 69.2968 -177.849
lowerback 213.618 174.108 172.23
upperback 10.3192 6.00094 1.56859
thorax -6.42861 3.05678 3.57106
lowerneck -5.45946 -0.547255 -5.30995
upperneck -19.0528 2.18039 13.0683
head -4.91385 1.24102 4.94497
rclavicle -7.63333e-014 -1.86858e-014
rhumerus -57.8706 15.7161 -77.0065
rradius 85.4901
rwrist -17.2963
rhand 10.9674 6.83479
rfingers 7.12502
rthumb 36.0433 -19.4711
lclavicle -7.63333e-014 -1.86858e-014
lhumerus -52.0347 -21.3113 81.1218
lradius 103.511
lwrist 31.2664
lhand -11.1245 42.1883
lfingers 7.12502
lthumb 14.9006 71.6324
rfemur -100.393 -5.87674 27.6352
rtibia 48.8605
rfoot -14.9993 -16.2337
rtoes -16.8455
lfemur -103.279 1.80892 -16.6955
ltibia 41.495
lfoot -7.18311 -5.05385
ltoes -24.2442
591
root -1.77437 16.1283 0.389931 -109.029 69.7777 -177.873
lowerback 213.803 174.264 172.393
upperback 10.2578 5.83095 1.49922
thorax -6.5267 2.98231 3.46281
lowerneck -5.03111 -0.537916 -6.15476
upperneck -19.5325 2.39209 13.91
head -5.15501 1.34688 5.37331
rclavicle -7.31528e-014 -4.77083e-015
rhumerus -57.9438 16.0422 -77.1754
rradius 85.339
rwrist -17.3737
rhand 11.1532 6.76285
rfingers 7.12502
rthumb 36.2193 -19.4995
lclavicle -7.31528e-014 -4.77083e-015
lhumerus -52.2886 -21.0633 81.0681
lradius 103.509
lwrist 31.2887
lhand -10.9555 41.9189
lfingers 7.12502
lthumb 15.0633 71.3508
rfemur -100.241 -5.90866 27.2467
rtibia 48.8369
rfoot -15.0079 -16.1269
rtoes -16.886
lfemur -103.046 1.80616 -17.1119
ltibia 41.5356
lfoot -7.30386 -4.983
ltoes -24.0919
592
root -1.77156 16.1301 0.369879 -109.301 70.2079 -178.103
lowerback 213.892 174.49 172.642
upperback 10.1816 5.60792 1.41625
thorax -6.59569 2.88384 3.32209
lowerneck -4.55984 -0.48541 -6.56799
upperneck -20.0126 2.59476 14.3687
head -5.40685 1.43242 5.60289
rclavicle -7.79236e-014 -7.7526e-014
rhumerus -58.0146 16.3743 -77.4402
rradius 85.1969
rwrist -17.3877
rhand 11.2718 6.71324
rfingers 7.12502
rthumb 36.3316 -19.5211
lclavicle -7.79236e-014 -7.7526e-014
lhumerus -52.5403 -20.8016 80.9972
lradius 103.42
lwrist 31.3131
lhand -10.8473 41.9164
lfingers 7.12502
lthumb 15.1676 71.3405
rfemur -100.183 -5.98053 26.8444
rtibia 48.8108
rfoot -14.9635 -16.107
rtoes -16.9812
lfemur -102.913 1.74897 -17.5271
ltibia 41.5691
lfoot -7.35495 -4.93685
ltoes -24.1844
593
root -1.76861 16.1307 0.352026 -109.403 70.6456 -178.195
lowerback 213.856 174.711 172.855
upperback 10.1821 5.39823 1.34484
thorax -6.54218 2.78853 3.21835
lowerneck -4.16284 -0.410196 -6.74808
upperneck -20.5502 2.80507 14.5896
head -5.66776 1.52165 5.71438
rclavicle 3.18055e-015 1.35174e-014
rhumerus -57.8653 16.7295 -77.5943
rradius 84.9817
rwrist -17.3055
rhand 11.3988 6.79449
rfingers 7.12502
rthumb 36.4519 -19.4097
lclavicle 3.18055e-015 1.35174e-014
lhumerus -52.6215 -20.4196 80.9251
lradius 103.327
lwrist 31.3527
lhand -10.7856 42.0708
lfingers 7.12502
lthumb 15.2271 71.4904
rfemur -100.162 -5.99645 26.4858
rtibia 48.7696
rfoot -14.9423 -16.0238
rtoes -17.0697
lfemur -102.828 1.76319 -17.9601
ltibia 41.5952
lfoot -7.39472 -4.94989
ltoes -24.2898
594
root -1.76595 16.1366 0.334065 -109.757 71.1516 -178.477
lowerback 213.927 174.974 173.044
upperback 10.1827 5.1184 1.19664
thorax -6.51432 2.66352 3.06552
lowerneck -4.19905 -0.362862 -6.90049
upperneck -20.654 2.94684 14.8562
head -5.7113 1.59383 5.82946
rclavicle 6.04305e-014 5.4467e-014
rhumerus -57.7833 17.184 -77.7244
rradius 84.8852
rwrist -17.229
rhand 11.6996 6.85759
rfingers 7.12502
rthumb 36.7365 -19.2745
lclavicle 6.04305e-014 5.4467e-014
lhumerus -52.7035 -20.0687 80.7284
lradius 103.285
lwrist 31.4063
lhand -10.7212 41.9196
lfingers 7.12502
lthumb 15.289 71.3345
rfemur -100.06 -6.04112 25.9626
rtibia 48.7307
rfoot -14.8234 -16.038
rtoes -17.2493
lfemur -102.644 1.73659 -18.5031
ltibia 41.6089
lfoot -7.49993 -4.99528
ltoes -23.9748
